<svg xmlns="http://www.w3.org/2000/svg" width="1200" height="630" viewBox="0 0 1200 630">
  <rect width="1200" height="630" fill="#f5f7fb"/>
  <rect width="1200" height="16" fill="#111827"/>
  <circle cx="1050" cy="138" r="86" fill="#e6edff"/>
  <circle cx="1050" cy="138" r="50" fill="#cddcff"/>
  <circle cx="1050" cy="138" r="15" fill="#2f6bff"/>
  <g fill="none" stroke="#c8d1e1" stroke-width="3">
    <path d="M894 353 C980 282 1036 250 1105 232"/>
    <path d="M894 353 C995 381 1051 423 1117 484"/>
    <path d="M894 353 C817 421 761 472 697 518"/>
  </g>
  <g font-family="Arial, Helvetica, sans-serif">
    <text x="82" y="105" font-size="34" font-weight="700" letter-spacing="-1" fill="#111827">Atriveo<tspan fill="#2f6bff">.</tspan></text>
    <text x="82" y="254" font-size="76" font-weight="700" letter-spacing="-4" fill="#111827">Everything being built,</text>
    <text x="82" y="340" font-size="76" font-weight="700" font-style="italic" letter-spacing="-4" fill="#2f6bff">under one roof.</text>
    <text x="86" y="414" font-size="24" fill="#536078">Live products, open-source experiments, public activity,</text>
    <text x="86" y="448" font-size="24" fill="#536078">and the work connecting them.</text>
    <rect x="82" y="505" width="286" height="54" rx="27" fill="#111827"/>
    <text x="113" y="540" font-size="20" font-weight="700" letter-spacing="1" fill="#ffffff">ATRIVEO.COM  →</text>
    <rect x="846" y="315" width="96" height="96" rx="26" fill="#111827"/>
    <text x="874" y="378" font-size="46" font-weight="700" fill="#ffffff">A</text>
    <rect x="1060" y="438" width="92" height="92" rx="25" fill="#2f6bff"/>
    <text x="1072" y="495" font-size="25" font-weight="700" fill="#ffffff">LIVE</text>
    <rect x="642" y="475" width="92" height="92" rx="25" fill="#7565e8"/>
    <text x="658" y="532" font-size="30" font-weight="700" fill="#ffffff">OSS</text>
  </g>
</svg>
